STARTFONT 2.1
FONT -Misc-xbmicons-Medium-R-Normal--12-120-72-72-C-60-ISO10646-1
SIZE 12 72 72
FONTBOUNDINGBOX 9 12 0 -2

STARTPROPERTIES 22
POINT_SIZE 120
PIXEL_SIZE 12
RESOLUTION_X 72
RESOLUTION_Y 72
AVERAGE_WIDTH 60
SPACING "C"
_GBDFED_INFO "Edited with gbdfed 1.6."
FAMILY_NAME "xbmicons"
CHARSET_REGISTRY "ISO10646"
CHARSET_ENCODING "1"
FOUNDRY "Misc"
COPYRIGHT "GPLv2"
MIN_SPACE 6
QUAD_WIDTH 6
SETWIDTH_NAME "Normal"
SLANT "R"
WEIGHT 10
WEIGHT_NAME "Medium"
X_HEIGHT 10
DEFAULT_CHAR 0
FONT_DESCENT 2
FONT_ASCENT 10
ENDPROPERTIES

CHARS 33

STARTCHAR U+E000
ENCODING 57344
SWIDTH 500 0
DWIDTH 6 0
BBX 9 12 0 -2
BITMAP
0000
0000
3C00
6600
F700
F500
A500
A700
4E00
3C00
0000
0000
ENDCHAR

STARTCHAR U+E001
ENCODING 57345
SWIDTH 500 0
DWIDTH 6 0
BBX 9 12 0 -2
BITMAP
0000
0000
6000
EC00
DE00
5E00
EC00
DE00
3F00
3F00
0000
0000
ENDCHAR

STARTCHAR char57346
ENCODING 57346
SWIDTH 500 0
DWIDTH 6 0
BBX 9 12 0 -2
BITMAP
0000
0000
7E00
FF00
8100
A100
9100
A100
8100
7E00
0000
0000
ENDCHAR

STARTCHAR char57347
ENCODING 57347
SWIDTH 500 0
DWIDTH 6 0
BBX 9 12 0 -2
BITMAP
0000
0000
7E00
FF00
8100
BD00
8100
BD00
8100
7E00
0000
0000
ENDCHAR

STARTCHAR char57347
ENCODING 57348
SWIDTH 500 0
DWIDTH 6 0
BBX 9 12 0 -2
BITMAP
0000
0000
7E00
FF00
8100
A500
8100
BD00
8100
7E00
0000
0000
ENDCHAR

STARTCHAR char57348
ENCODING 57349
SWIDTH 500 0
DWIDTH 6 0
BBX 9 12 0 -2
BITMAP
0000
0000
FE00
B500
B500
BD00
8100
8100
8100
FF00
0000
0000
ENDCHAR

STARTCHAR char57349
ENCODING 57350
SWIDTH 500 0
DWIDTH 6 0
BBX 9 12 0 -2
BITMAP
0000
0000
3C00
7600
E700
FF00
E000
F800
7E00
3C00
0000
0000
ENDCHAR

STARTCHAR char57350
ENCODING 57351
SWIDTH 500 0
DWIDTH 6 0
BBX 9 12 0 -2
BITMAP
0000
0800
0800
1C00
1C00
3E00
3E00
7700
6300
E380
8080
0000
ENDCHAR

STARTCHAR char57351
ENCODING 57352
SWIDTH 500 0
DWIDTH 6 0
BBX 9 12 0 -2
BITMAP
0000
0000
FF00
8100
8100
8100
8100
FF00
1800
FF00
0000
0000
ENDCHAR

STARTCHAR char57352
ENCODING 57353
SWIDTH 500 0
DWIDTH 6 0
BBX 9 12 0 -2
BITMAP
0000
0000
F700
F700
F000
0700
F700
F000
F700
F700
0000
0000
ENDCHAR

STARTCHAR char57353
ENCODING 57354
SWIDTH 500 0
DWIDTH 6 0
BBX 9 12 0 -2
BITMAP
0000
0000
F800
F800
F800
FB00
FB00
0300
1F00
1F00
0000
0000
ENDCHAR

STARTCHAR char57354
ENCODING 57355
SWIDTH 500 0
DWIDTH 6 0
BBX 9 12 0 -2
BITMAP
0000
0000
FF00
FF00
FF00
FF00
FF00
FF00
FF00
FF00
0000
0000
ENDCHAR

STARTCHAR char57355
ENCODING 57356
SWIDTH 500 0
DWIDTH 6 0
BBX 9 12 0 -2
BITMAP
0000
0000
EF00
EF00
EF00
EF00
0000
DB00
DB00
DB00
0000
0000
ENDCHAR

STARTCHAR char57356
ENCODING 57357
SWIDTH 500 0
DWIDTH 6 0
BBX 9 12 0 -2
BITMAP
0000
0000
DB00
DB00
0000
DB00
DB00
0000
DB00
DB00
0000
0000
ENDCHAR

STARTCHAR char57357
ENCODING 57358
SWIDTH 500 0
DWIDTH 6 0
BBX 9 12 0 -2
BITMAP
0000
0000
3F00
3F00
2100
2100
2100
2100
E700
E700
0000
0000
ENDCHAR

STARTCHAR char57358
ENCODING 57359
SWIDTH 500 0
DWIDTH 6 0
BBX 9 12 0 -2
BITMAP
0000
0000
DB00
8100
3C00
BD00
BD00
3C00
8100
DB00
0000
0000
ENDCHAR

STARTCHAR char57359
ENCODING 57360
SWIDTH 500 0
DWIDTH 6 0
BBX 9 12 0 -2
BITMAP
0000
0000
AA00
0000
FE00
FE00
FE00
FE00
0000
AA00
0000
0000
ENDCHAR

STARTCHAR char57360
ENCODING 57361
SWIDTH 500 0
DWIDTH 6 0
BBX 9 12 0 -2
BITMAP
0000
0000
3800
3800
3800
3800
FE00
7C00
3800
1000
0000
0000
ENDCHAR

STARTCHAR char57361
ENCODING 57362
SWIDTH 500 0
DWIDTH 6 0
BBX 9 12 0 -2
BITMAP
0000
0000
1000
3800
7C00
FE00
3800
3800
3800
3800
0000
0000
ENDCHAR

STARTCHAR char57362
ENCODING 57363
SWIDTH 500 0
DWIDTH 6 0
BBX 9 12 0 -2
BITMAP
0000
0000
7E00
FF00
FF00
FF00
FF00
7E00
0C00
1800
0000
0000
ENDCHAR

STARTCHAR char57363
ENCODING 57364
SWIDTH 500 0
DWIDTH 6 0
BBX 9 12 0 -2
BITMAP
0000
0000
0000
FF80
BE80
DD80
EB80
D580
BE80
FF80
0000
0000
ENDCHAR

STARTCHAR char57364
ENCODING 57365
SWIDTH 500 0
DWIDTH 6 0
BBX 9 12 0 -2
BITMAP
0000
0000
1000
3200
F100
F500
F500
F100
3200
1000
0000
0000
ENDCHAR

STARTCHAR char57365
ENCODING 57366
SWIDTH 500 0
DWIDTH 6 0
BBX 9 12 0 -2
BITMAP
0000
0000
3C00
6E00
EF00
EF00
E100
FF00
7E00
3C00
0000
0000
ENDCHAR

STARTCHAR char57366
ENCODING 57367
SWIDTH 500 0
DWIDTH 6 0
BBX 9 12 0 -2
BITMAP
0000
0000
FF00
FF00
1800
1800
FF00
DB00
C300
FF00
0000
0000
ENDCHAR

STARTCHAR char57367
ENCODING 57368
SWIDTH 500 0
DWIDTH 6 0
BBX 9 12 0 -2
BITMAP
8000
C000
E000
F000
F800
FC00
FC00
F800
F000
E000
C000
8000
ENDCHAR

STARTCHAR char57368
ENCODING 57369
SWIDTH 500 0
DWIDTH 6 0
BBX 9 12 0 -2
BITMAP
8000
4000
2000
1000
0800
0400
0400
0800
1000
2000
4000
8000
ENDCHAR

STARTCHAR char57369
ENCODING 57370
SWIDTH 500 0
DWIDTH 6 0
BBX 9 12 0 -2
BITMAP
0400
0C00
1C00
3C00
7C00
FC00
FC00
7C00
3C00
1C00
0C00
0400
ENDCHAR

STARTCHAR char57370
ENCODING 57371
SWIDTH 500 0
DWIDTH 6 0
BBX 9 12 0 -2
BITMAP
0400
0800
1000
2000
4000
8000
8000
4000
2000
1000
0800
0400
ENDCHAR

STARTCHAR char57372
ENCODING 57372
SWIDTH 500 0
DWIDTH 6 0
BBX 9 12 0 -2
BITMAP
8000
C000
E000
F000
F800
F800
F800
F800
F800
F800
F800
F800
ENDCHAR

STARTCHAR char57373
ENCODING 57373
SWIDTH 500 0
DWIDTH 6 0
BBX 9 12 0 -2
BITMAP
7C00
7C00
7C00
7C00
7C00
7C00
7C00
7C00
3C00
1C00
0C00
0400
ENDCHAR

STARTCHAR char57374
ENCODING 57374
SWIDTH 500 0
DWIDTH 6 0
BBX 9 12 0 -2
BITMAP
0000
0000
0000
7F00
8080
3E00
4100
1C00
0000
0800
0000
0000
ENDCHAR

STARTCHAR char57375
ENCODING 57375
SWIDTH 500 0
DWIDTH 6 0
BBX 9 12 0 -2
BITMAP
0000
0000
7800
FC00
8400
B400
B400
B400
8400
FC00
0000
0000
ENDCHAR

STARTCHAR char57376
ENCODING 57376
SWIDTH 500 0
DWIDTH 6 0
BBX 9 12 0 -2
BITMAP
0800
0800
0800
0800
0800
0800
0800
0800
0800
0800
0800
0800
ENDCHAR

STARTCHAR char57377
ENCODING 57377
SWIDTH 500 0
DWIDTH 6 0
BBX 9 12 0 -2
BITMAP
0000
0000
FF00
8100
8100
8100
8100
FF00
1800
FF00
0000
0000
ENDCHAR

STARTCHAR char57378
ENCODING 57378
SWIDTH 500 0
DWIDTH 6 0
BBX 9 12 0 -2
BITMAP
0000
0000
F700
F700
F000
0700
F700
F000
F700
F700
0000
0000
ENDCHAR

STARTCHAR char57379
ENCODING 57379
SWIDTH 500 0
DWIDTH 6 0
BBX 9 12 0 -2
BITMAP
0000
0000
F800
F800
F800
FB00
FB00
0300
1F00
1F00
0000
0000
ENDCHAR

STARTCHAR char57380
ENCODING 57380
SWIDTH 500 0
DWIDTH 6 0
BBX 9 12 0 -2
BITMAP
0000
0000
FF00
FF00
FF00
FF00
FF00
FF00
FF00
FF00
0000
0000
ENDCHAR

STARTCHAR char57381
ENCODING 57381
SWIDTH 500 0
DWIDTH 6 0
BBX 9 12 0 -2
BITMAP
0000
0000
EF00
EF00
EF00
EF00
0000
DB00
DB00
DB00
0000
0000
ENDCHAR

STARTCHAR char57382
ENCODING 57382
SWIDTH 500 0
DWIDTH 6 0
BBX 9 12 0 -2
BITMAP
0000
0000
DB00
DB00
0000
DB00
DB00
0000
DB00
DB00
0000
0000
ENDCHAR

STARTCHAR char57383
ENCODING 57383
SWIDTH 500 0
DWIDTH 6 0
BBX 9 12 0 -2
BITMAP
0000
0000
DB00
8100
3C00
BD00
BD00
3C00
8100
DB00
0000
0000
ENDCHAR

STARTCHAR char57384
ENCODING 57384
SWIDTH 500 0
DWIDTH 6 0
BBX 9 12 0 -2
BITMAP
0000
0000
0300
0500
0A00
1C00
7800
F000
F000
6000
0000
0000
ENDCHAR

STARTCHAR char57385
ENCODING 57385
SWIDTH 500 0
DWIDTH 6 0
BBX 9 12 0 -2
BITMAP
0000
0000
AA00
0000
FE00
FE00
FE00
FE00
0000
AA00
0000
0000
ENDCHAR

STARTCHAR char57386
ENCODING 57386
SWIDTH 500 0
DWIDTH 6 0
BBX 9 12 0 -2
BITMAP
0000
0000
3800
3800
3800
3800
FE00
7C00
3800
1000
0000
0000
ENDCHAR

STARTCHAR char57387
ENCODING 57387
SWIDTH 500 0
DWIDTH 6 0
BBX 9 12 0 -2
BITMAP
0000
0000
1000
3800
7C00
FE00
3800
3800
3800
3800
0000
0000
ENDCHAR

STARTCHAR char57388
ENCODING 57388
SWIDTH 500 0
DWIDTH 6 0
BBX 9 12 0 -2
BITMAP
0000
0000
1800
7E00
4200
4200
4200
4200
4200
7E00
0000
0000
ENDCHAR

STARTCHAR char57389
ENCODING 57389
SWIDTH 500 0
DWIDTH 6 0
BBX 9 12 0 -2
BITMAP
0000
0000
1800
7E00
4200
4200
4200
5A00
4200
7E00
0000
0000
ENDCHAR

STARTCHAR char57390
ENCODING 57390
SWIDTH 500 0
DWIDTH 6 0
BBX 9 12 0 -2
BITMAP
0000
0000
1800
7E00
4200
5A00
5A00
5A00
4200
7E00
0000
0000
ENDCHAR

STARTCHAR char57391
ENCODING 57391
SWIDTH 500 0
DWIDTH 6 0
BBX 9 12 0 -2
BITMAP
0000
0000
0400
0C00
1800
3C00
1E00
0C00
1800
1000
0000
0000
ENDCHAR

STARTCHAR char57391
ENCODING 57359
SWIDTH 500 0
DWIDTH 6 0
BBX 9 12 0 -2
BITMAP
0000
0000
2400
2400
7E00
3C00
3C00
3C00
1800
1800
0000
0000
ENDCHAR

STARTCHAR U+E010
ENCODING 57360
SWIDTH 500 0
DWIDTH 6 0
BBX 9 12 0 -2
BITMAP
0000
0000
1000
3200
F100
F500
F500
F100
3200
1000
0000
0000
ENDCHAR

STARTCHAR U+E011
ENCODING 57361
SWIDTH 500 0
DWIDTH 6 0
BBX 9 12 0 -2
BITMAP
0000
0000
3C00
6E00
EF00
EF00
E100
FF00
7E00
3C00
0000
0000
ENDCHAR

STARTCHAR U+E012
ENCODING 57362
SWIDTH 500 0
DWIDTH 6 0
BBX 9 12 0 -2
BITMAP
0000
0000
3F00
3F00
2100
2100
2100
2100
E700
E700
0000
0000
ENDCHAR

STARTCHAR U+E013
ENCODING 57363
SWIDTH 500 0
DWIDTH 6 0
BBX 9 12 0 -2
BITMAP
0000
0000
0000
FF80
BE80
DD80
EB80
D580
BE80
FF80
0000
0000
ENDCHAR

STARTCHAR U+E014
ENCODING 57364
SWIDTH 500 0
DWIDTH 6 0
BBX 9 12 0 -2
BITMAP
0000
0000
7E00
FF00
FF00
FF00
FF00
7E00
0C00
1800
0000
0000
ENDCHAR

STARTCHAR U+E015
ENCODING 57365
SWIDTH 750 0
DWIDTH 10 0
BBX 9 12 0 -2
BITMAP
0000
1C00
1400
1C00
0800
FF80
2200
7700
5500
7700
0000
0000
ENDCHAR

STARTCHAR U+E016
ENCODING 57366
SWIDTH 750 0
DWIDTH 12 0
BBX 9 12 0 -2
BITMAP
0000
0000
0300
0300
0300
1B00
1B00
1B00
DB00
DB00
0000
0000
ENDCHAR

STARTCHAR U+E017
ENCODING 57367
SWIDTH 500 0
DWIDTH 6 0
BBX 9 12 0 -2
BITMAP
0000
0000
3C00
6600
F700
F500
A500
A700
4E00
3C00
0000
0000
ENDCHAR


STARTCHAR U+E018
ENCODING 57368
SWIDTH 500 0
DWIDTH 6 0
BBX 9 12 0 -2
BITMAP
0000
0000
7E00
FF00
8100
A100
9100
A100
8100
7E00
0000
0000
ENDCHAR



































ENDFONT

